<svg aria-hidden="true" style="position: absolute; width: 0; height: 0; overflow: hidden;" version="1.1" xmlns="http://www.w3.org/2000/svg" xmlns:xlink="http://www.w3.org/1999/xlink">
<defs>
<symbol id="icon-logo" viewBox="0 0 37 32">
<path d="M33.831 2.003c-3.419 0.194-10.215 0.902-14.41 3.474-0.29 0.178-0.454 0.493-0.454 0.823v22.742c0 0.722 0.788 1.178 1.453 0.843 4.316-2.176 10.559-2.77 13.645-2.932 1.054-0.056 1.873-0.902 1.873-1.916v-21.115c0.001-1.107-0.958-1.984-2.107-1.919zM16.517 5.478c-4.195-2.572-10.991-3.279-14.41-3.474-1.149-0.065-2.108 0.812-2.108 1.919v21.116c0 1.015 0.819 1.861 1.873 1.916 3.088 0.162 9.333 0.757 13.65 2.934 0.663 0.334 1.448-0.121 1.448-0.841v-22.758c0-0.331-0.163-0.634-0.454-0.812z"></path>
</symbol>
</defs>
</svg>
